<svg xmlns="http://www.w3.org/2000/svg" xmlns:xlink="http://www.w3.org/1999/xlink" width="1440" height="283" viewBox="0 0 1440 283">
  <defs>
    <clipPath id="clip-path">
      <rect id="Rectangle_28" data-name="Rectangle 28" width="1440" height="283" transform="translate(0 2458)" fill="#001136"/>
    </clipPath>
  </defs>
  <g id="Mask_Group_2" data-name="Mask Group 2" transform="translate(0 -2458)" opacity="0.04" clip-path="url(#clip-path)">
    <g id="Group_87" data-name="Group 87" transform="translate(2834.562 373.231)">
      <g id="Group_12" data-name="Group 12" transform="translate(-1842 2481)">
        <g id="Group_4" data-name="Group 4" transform="translate(0 0.626)">
          <g id="Group_3" data-name="Group 3">
            <g id="Group_1" data-name="Group 1" transform="translate(650.51 128.62)">
              <path id="Path_1" data-name="Path 1" d="M1824.377,3071.313l.361-.363-65.152-64.684-.5.5" transform="translate(-1759.09 -3006.266)" fill="#fff"/>
            </g>
            <g id="Group_2" data-name="Group 2">
              <path id="Path_2" data-name="Path 2" d="M2779.982,3286.059l-293.8-290.477L2356.07,3124.215l65.154,64.672.324-.312,64.6-63.816,228.537,225.934c89.127,87.672,90.295,231,2.625,320.121q-2.367,2.408-4.8,4.746c-91.32,85.922-234.029,84.957-324.191-2.176h0l-2.406-2.414h0l-95.51-94.422h0L2225.113,3512l-47.406,46.754h0l-115.918,114.6a232.141,232.141,0,0,1-195.918,64.555l130.586-129.113-157.58,26.75-133.811,132.3a325.955,325.955,0,0,0,422.068-29.926l97.918-96.8,97.918,96.8c126.791,124.773,330.232,124.773,457.035,0h0c124.768-122.781,126.381-323.453,3.611-448.219C2782.414,3288.469,2781.2,3287.262,2779.982,3286.059Z" transform="translate(-1705.066 -2995.582)" fill="#fff"/>
            </g>
          </g>
        </g>
        <g id="Group_8" data-name="Group 8" transform="translate(57.729)">
          <g id="Group_7" data-name="Group 7">
            <g id="Group_5" data-name="Group 5" transform="translate(465.016 258.891)">
              <path id="Path_3" data-name="Path 3" d="M1748.48,3017.105v128.656l.107.105V3017.031Z" transform="translate(-1748.48 -3017.031)" fill="#fff"/>
            </g>
            <g id="Group_6" data-name="Group 6">
              <path id="Path_4" data-name="Path 4" d="M2600.229,3416.148,2502,3319.25h0l-130.594-129.5L2306.121,3125l-130.574-129.473-196.482,193.977L1750.5,3415.418a136.679,136.679,0,0,0-1.23,193.281c.615.625,1.23,1.23,1.855,1.84a126.2,126.2,0,0,0,31.381,22.387c13.641,6.754,62.119,36.605,146.766-6.781.166-.082,245.527-242.637,245.707-242.68v-.211l-.107-.105V3254.477l-69.527,68.555-71.043,70.035-39.311,38.773-53.4,53.348-59.518,57.734a57.1,57.1,0,0,1-24.084,11.051c-46.959,2.41-58.7-54.437-41.6-72.895l293.795-291.332,64.66-64.789,65.707,65.02,41.518,40.938,23.705,23.289-23.705-23.289,29.295,28.9,60,59.5,65.287,64.742,70.594,70.008,27.334,27.105a44.414,44.414,0,0,1-.012,62.813l-.564.559a46.773,46.773,0,0,1-64.41,1.031l-27.26-27.09-72.041-71.258-64.189-63.238-65.3-64.758-65.91-65.164v.43l.109-.105v128.84l65.814,65.453h0l65.285,64.746h0l96.014,95.207a141.523,141.523,0,0,0,199.688,0A136.773,136.773,0,0,0,2600.229,3416.148Z" transform="translate(-1709.858 -2995.531)" fill="#fff"/>
            </g>
          </g>
        </g>
      </g>
    </g>
  </g>
</svg>
