<svg xmlns="http://www.w3.org/2000/svg" width="26.41" height="26.408" viewBox="0 0 26.41 26.408">
  <g id="bathtub" transform="translate(0 -0.023)">
    <path id="Path_551" data-name="Path 551" d="M26.41,16.267a2.528,2.528,0,0,0-2.525-2.525H3.1V3.421A1.853,1.853,0,0,1,4.954,1.57h1.7a1,1,0,0,1,.75.337l.776.875a3.461,3.461,0,0,0-.071.7V4.5A.773.773,0,0,0,8.364,6h6.4a.773.773,0,0,0,.258-1.5V3.481A3.457,3.457,0,0,0,8.905,1.272L8.559.881A2.551,2.551,0,0,0,6.651.023h-1.7a3.4,3.4,0,0,0-3.4,3.4V13.845a.782.782,0,0,0,.005.088A2.525,2.525,0,0,0,1.556,18.6V20a5.028,5.028,0,0,0,5.022,5.022H7.02v.638a.774.774,0,0,0,1.547,0v-.638h9.275v.638a.774.774,0,1,0,1.547,0v-.638h.442A5.028,5.028,0,0,0,24.854,20V18.6a2.529,2.529,0,0,0,1.556-2.331ZM11.564,1.57a1.913,1.913,0,0,1,1.911,1.911v.97H9.653v-.97A1.913,1.913,0,0,1,11.564,1.57Zm8.268,21.9H6.578A3.479,3.479,0,0,1,3.1,20v-1.2h20.2V20a3.479,3.479,0,0,1-3.475,3.475Zm4.053-6.227H2.525a.978.978,0,1,1,0-1.956h21.36a.978.978,0,1,1,0,1.956Z" transform="translate(0 0)" fill="#001136"/>
    <path id="Path_552" data-name="Path 552" d="M268.721,206.756a.774.774,0,1,0-.463.865A.782.782,0,0,0,268.721,206.756Z" transform="translate(-253.409 -195.48)" fill="#001136"/>
    <path id="Path_553" data-name="Path 553" d="M208.721,206.756a.774.774,0,1,0-.463.865A.782.782,0,0,0,208.721,206.756Z" transform="translate(-196.504 -195.48)" fill="#001136"/>
    <path id="Path_554" data-name="Path 554" d="M148.721,206.756a.774.774,0,1,0-.463.865A.782.782,0,0,0,148.721,206.756Z" transform="translate(-139.599 -195.48)" fill="#001136"/>
    <path id="Path_555" data-name="Path 555" d="M268.732,146.843a.774.774,0,1,0-.545.816A.781.781,0,0,0,268.732,146.843Z" transform="translate(-253.409 -138.587)" fill="#001136"/>
    <path id="Path_556" data-name="Path 556" d="M208.734,146.843a.774.774,0,1,0-.545.816A.781.781,0,0,0,208.734,146.843Z" transform="translate(-196.505 -138.587)" fill="#001136"/>
    <path id="Path_557" data-name="Path 557" d="M148.734,146.843a.774.774,0,1,0-.545.816A.781.781,0,0,0,148.734,146.843Z" transform="translate(-139.601 -138.587)" fill="#001136"/>
  </g>
</svg>
