<svg id="Group_806" data-name="Group 806" xmlns="http://www.w3.org/2000/svg" width="36.439" height="22.805" viewBox="0 0 36.439 22.805">
  <path id="Path_503" data-name="Path 503" d="M73.812,554.465v1.209s-4.96,2.584-1.5,5.877,9.837,3.585,9.837,3.585v-1.667l6.335,3.376-6.377,3.585v-1.792s-12.713-1.167-13.421-8.336C68.685,560.3,68.56,557.007,73.812,554.465Z" transform="translate(-68.685 -547.624)" fill="#001136"/>
  <path id="Path_504" data-name="Path 504" d="M330.224,554.465v1.25s2.709,1.292,2.668,3.626-4,5.168-13.338,6v3.5s15.63-1,15.8-8.628C335.351,560.217,335.81,557.007,330.224,554.465Z" transform="translate(-298.922 -547.624)" fill="#001136"/>
  <g id="Group_804" data-name="Group 804" transform="translate(6.605 2.855)">
    <path id="Path_505" data-name="Path 505" d="M149.991,506.787a3.477,3.477,0,0,1,2.472-.784,5.727,5.727,0,0,1,1.628.2,2.467,2.467,0,0,1,1.032.573,2.076,2.076,0,0,1,.543.927,4.562,4.562,0,0,1,.158,1.259,3.025,3.025,0,0,1-.075.656,2.167,2.167,0,0,1-.249.633,1.877,1.877,0,0,1-.46.52,1.7,1.7,0,0,1-.708.317v.03a1.824,1.824,0,0,1,1.311.821,2.936,2.936,0,0,1,.377,1.515,3.361,3.361,0,0,1-.874,2.6,3.774,3.774,0,0,1-2.608.791,7.268,7.268,0,0,1-1.575-.151,2.415,2.415,0,0,1-1.108-.543,2.327,2.327,0,0,1-.648-1.047,5.344,5.344,0,0,1-.211-1.62h2.623a4.471,4.471,0,0,0,.053.754,2.321,2.321,0,0,0,.143.512.641.641,0,0,0,.633.392.963.963,0,0,0,.392-.068.473.473,0,0,0,.234-.256,1.7,1.7,0,0,0,.113-.512q.03-.324.03-.822a1.615,1.615,0,0,0-.249-1.055,1,1,0,0,0-.776-.271h-.708V510.4h.407a2.127,2.127,0,0,0,.543-.06.761.761,0,0,0,.377-.226,1.068,1.068,0,0,0,.226-.46,3.15,3.15,0,0,0,.075-.761,1.656,1.656,0,0,0-.173-.912.623.623,0,0,0-.535-.234.608.608,0,0,0-.58.316,2.671,2.671,0,0,0-.173,1.161h-2.532A3.318,3.318,0,0,1,149.991,506.787Z" transform="translate(-148.996 -506.003)" fill="#001136"/>
    <path id="Path_506" data-name="Path 506" d="M248.511,507.962a.668.668,0,0,0-.558-.211.716.716,0,0,0-.535.249,1.078,1.078,0,0,0-.234.761v1.7h.03a1.292,1.292,0,0,1,.671-.618,2.65,2.65,0,0,1,1.123-.226,3.231,3.231,0,0,1,1.04.158,1.916,1.916,0,0,1,.806.527,2.459,2.459,0,0,1,.52.995,5.713,5.713,0,0,1,.181,1.56,6.432,6.432,0,0,1-.234,1.854,3.011,3.011,0,0,1-.693,1.243,2.6,2.6,0,0,1-1.123.678,5.2,5.2,0,0,1-1.522.2,5.747,5.747,0,0,1-1.613-.2,2.41,2.41,0,0,1-1.153-.724,3.388,3.388,0,0,1-.693-1.387,8.527,8.527,0,0,1-.234-2.178v-1.191a16.686,16.686,0,0,1,.128-2.193,4.2,4.2,0,0,1,.52-1.613,2.546,2.546,0,0,1,1.115-1,4.467,4.467,0,0,1,1.914-.347,5.243,5.243,0,0,1,1.68.226,2.611,2.611,0,0,1,1.033.61,2.063,2.063,0,0,1,.52.882,3.686,3.686,0,0,1,.143,1.025h-2.623A1.307,1.307,0,0,0,248.511,507.962Zm-1.153,6.813a.62.62,0,0,0,.61.362.631.631,0,0,0,.588-.362,3.288,3.288,0,0,0,.2-1.387,3.68,3.68,0,0,0-.173-1.387.62.62,0,0,0-.61-.362.631.631,0,0,0-.588.362,3.286,3.286,0,0,0-.2,1.387A3.674,3.674,0,0,0,247.358,514.775Z" transform="translate(-236.454 -506.003)" fill="#001136"/>
    <path id="Path_507" data-name="Path 507" d="M339.806,508.776a4.372,4.372,0,0,1,.663-1.673,2.315,2.315,0,0,1,1.13-.859,5.563,5.563,0,0,1,3.24,0,2.317,2.317,0,0,1,1.13.859,4.38,4.38,0,0,1,.663,1.673,16.438,16.438,0,0,1,0,5.343,4.3,4.3,0,0,1-.663,1.658,2.242,2.242,0,0,1-1.13.837,5.919,5.919,0,0,1-3.24,0,2.24,2.24,0,0,1-1.13-.837,4.29,4.29,0,0,1-.663-1.658,16.44,16.44,0,0,1,0-5.343Zm2.781,5.961a.7.7,0,0,0,1.266,0,3.967,3.967,0,0,0,.2-1.53v-3.527a3.968,3.968,0,0,0-.2-1.53.7.7,0,0,0-1.266,0,3.966,3.966,0,0,0-.2,1.53v3.527A3.965,3.965,0,0,0,342.586,514.737Z" transform="translate(-323.912 -506.003)" fill="#001136"/>
  </g>
  <g id="Group_805" data-name="Group 805" transform="translate(28.83 0)">
    <path id="Path_508" data-name="Path 508" d="M419.308,472.293a1.593,1.593,0,0,1,.241-.609.842.842,0,0,1,.411-.313,2.024,2.024,0,0,1,1.179,0,.844.844,0,0,1,.411.313,1.594,1.594,0,0,1,.241.609,5.976,5.976,0,0,1,0,1.945,1.563,1.563,0,0,1-.241.6.816.816,0,0,1-.411.3,2.156,2.156,0,0,1-1.179,0,.815.815,0,0,1-.411-.3,1.562,1.562,0,0,1-.241-.6,5.99,5.99,0,0,1,0-1.945Zm1.012,2.17a.255.255,0,0,0,.461,0,1.446,1.446,0,0,0,.071-.557v-1.284a1.446,1.446,0,0,0-.071-.557.255.255,0,0,0-.461,0,1.444,1.444,0,0,0-.071.557v1.284A1.445,1.445,0,0,0,420.321,474.463Z" transform="translate(-419.229 -471.284)" fill="#001136"/>
  </g>
</svg>
