<svg xmlns="http://www.w3.org/2000/svg" width="26.654" height="26.339" viewBox="0 0 26.654 26.339">
  <g id="Group_684" data-name="Group 684" transform="translate(0.152 0.15)">
    <path id="Path_466" data-name="Path 466" d="M994.445,223.441h.162v-3.106a1.776,1.776,0,0,1,1.775-1.775h10.948a1.776,1.776,0,0,1,1.775,1.775v3.106h.3a1.567,1.567,0,0,1,1.565,1.565v8.543a1.567,1.567,0,0,1-1.565,1.565h-1.55a1.567,1.567,0,0,1-1.565-1.565v-.964h-8.73v.964a1.567,1.567,0,0,1-1.565,1.565h-1.55a1.567,1.567,0,0,1-1.565-1.565v-8.543A1.567,1.567,0,0,1,994.445,223.441Zm13.071,10.108a.339.339,0,0,0,.339.339h1.55a.339.339,0,0,0,.339-.339v-8.543a.339.339,0,0,0-.339-.339h-1.55a.339.339,0,0,0-.339.339Zm-9.956-2.19h8.73V228.41h-8.73Zm0-6.352v2.178h8.73v-2.178a1.567,1.567,0,0,1,1.565-1.565h.025v-3.106a.55.55,0,0,0-.549-.549H996.383a.55.55,0,0,0-.549.549v3.106h.161A1.567,1.567,0,0,1,997.56,225.006Zm-3.454,8.543a.339.339,0,0,0,.339.339h1.55a.339.339,0,0,0,.339-.339v-8.543a.339.339,0,0,0-.339-.339h-1.55a.339.339,0,0,0-.339.339Z" transform="translate(-984.618 -209.075)" fill="#001136" stroke="#001136" stroke-width="0.3"/>
    <path id="Path_467" data-name="Path 467" d="M1124.394,244.682a.614.614,0,0,1,.476-.226h1.88V241.48h-.954a.613.613,0,1,1,0-1.226h.954v-2.669a.613.613,0,1,1,1.226,0v.532h.776a.613.613,0,0,1,0,1.226h-.776v5.114h1.881a.613.613,0,0,1,.6.712l-.819,5.019a.614.614,0,0,1-.605.514H1125.9a.614.614,0,0,1-.6-.49l-1.033-5.019A.614.614,0,0,1,1124.394,244.682Zm2.009,4.794h2.113l.619-3.793h-3.513Z" transform="translate(-1124.256 -224.663)" fill="#001136" stroke="#001136" stroke-width="0.3"/>
    <ellipse id="Ellipse_33" data-name="Ellipse 33" cx="0.838" cy="0.838" rx="0.838" ry="0.838" transform="translate(18.286 15.608) rotate(-103.282)" fill="#001136" stroke="#001136" stroke-width="0.3"/>
    <ellipse id="Ellipse_34" data-name="Ellipse 34" cx="0.838" cy="0.838" rx="0.838" ry="0.838" transform="translate(15.01 15.608) rotate(-103.282)" fill="#001136" stroke="#001136" stroke-width="0.3"/>
    <path id="Path_468" data-name="Path 468" d="M1101.109,167.042a5.181,5.181,0,1,1,5.181-5.181A5.186,5.186,0,0,1,1101.109,167.042Zm0-9.135a3.954,3.954,0,1,0,3.955,3.955A3.959,3.959,0,0,0,1101.109,157.906Z" transform="translate(-1095.735 -156.68)" fill="#001136" stroke="#001136" stroke-width="0.3"/>
    <path id="Path_469" data-name="Path 469" d="M1126.774,177.769a.613.613,0,1,1-.867-.867l.688-.688v-1.4a.613.613,0,0,1,1.227,0v1.652a.613.613,0,0,1-.179.433Z" transform="translate(-1121.833 -171.517)" fill="#001136" stroke="#001136" stroke-width="0.3"/>
  </g>
</svg>
