<svg xmlns="http://www.w3.org/2000/svg" width="25.74" height="25.74" viewBox="0 0 25.74 25.74">
  <g id="Group_784" data-name="Group 784" transform="translate(-285.13 -408.5)">
    <g id="Group_783" data-name="Group 783">
      <g id="Group_785" data-name="Group 785">
        <circle id="Ellipse_49" data-name="Ellipse 49" cx="1.25" cy="1.25" r="1.25" transform="translate(303.8 417.75)" fill="#001136" stroke="#001136" stroke-width="0.2"/>
      </g>
      <g id="Group_786" data-name="Group 786">
        <path id="Path_490" data-name="Path 490" d="M310.76,414.46v5.79a.765.765,0,1,1-1.53,0v-5.8a2.3,2.3,0,0,0-2.28-2.28h-1.57v1.27a.77.77,0,0,1-1.54,0v-1.27h-5.13v1.27a.768.768,0,0,1-.76.77.777.777,0,0,1-.77-.77v-1.27H292.1v1.27a.765.765,0,1,1-1.53,0v-1.27h-1.52a2.309,2.309,0,0,0-2.29,2.29v15.87a2.3,2.3,0,0,0,2.29,2.28h7.78a.765.765,0,1,1,0,1.53h-7.78a3.824,3.824,0,0,1-3.82-3.81V414.46a3.826,3.826,0,0,1,3.82-3.82h1.52v-1.27a.765.765,0,1,1,1.53,0v1.27h5.08v-1.27a.77.77,0,0,1,1.54,0v1.27h5.12v-1.27a.77.77,0,0,1,1.54,0v1.27h1.57A3.824,3.824,0,0,1,310.76,414.46Z" fill="#001136" stroke="#001136" stroke-width="0.2"/>
      </g>
      <g id="Group_787" data-name="Group 787">
        <path id="Path_488" data-name="Path 488" d="M304.87,422.34a5.9,5.9,0,1,0,5.9,5.9A5.913,5.913,0,0,0,304.87,422.34Zm0,10.27a4.37,4.37,0,1,1,4.37-4.37A4.374,4.374,0,0,1,304.87,432.61Z" fill="#001136" stroke="#001136" stroke-width="0.2"/>
      </g>
      <g id="Group_788" data-name="Group 788">
        <path id="Path_491" data-name="Path 491" d="M306.66,428.37a.645.645,0,0,1-.64.64h-1.28a.638.638,0,0,1-.64-.64v-1.82a.627.627,0,0,1,.63-.63h.01a.634.634,0,0,1,.63.63v1.18h.65A.651.651,0,0,1,306.66,428.37Z" fill="#001136" stroke="#001136" stroke-width="0.2"/>
      </g>
      <g id="Group_789" data-name="Group 789">
        <circle id="Ellipse_50" data-name="Ellipse 50" cx="1.25" cy="1.25" r="1.25" transform="translate(298.8 417.75)" fill="#001136" stroke="#001136" stroke-width="0.2"/>
      </g>
      <g id="Group_790" data-name="Group 790">
        <circle id="Ellipse_51" data-name="Ellipse 51" cx="1.25" cy="1.25" r="1.25" transform="translate(293.8 422.75)" fill="#001136" stroke="#001136" stroke-width="0.2"/>
      </g>
      <g id="Group_791" data-name="Group 791">
        <circle id="Ellipse_52" data-name="Ellipse 52" cx="1.25" cy="1.25" r="1.25" transform="translate(288.8 417.75)" fill="#001136" stroke="#001136" stroke-width="0.2"/>
      </g>
      <g id="Group_792" data-name="Group 792">
        <circle id="Ellipse_53" data-name="Ellipse 53" cx="1.25" cy="1.25" r="1.25" transform="translate(288.8 422.75)" fill="#001136" stroke="#001136" stroke-width="0.2"/>
      </g>
      <g id="Group_793" data-name="Group 793">
        <circle id="Ellipse_54" data-name="Ellipse 54" cx="1.25" cy="1.25" r="1.25" transform="translate(288.8 427.75)" fill="#001136" stroke="#001136" stroke-width="0.2"/>
      </g>
      <g id="Group_794" data-name="Group 794">
        <circle id="Ellipse_55" data-name="Ellipse 55" cx="1.25" cy="1.25" r="1.25" transform="translate(293.8 427.75)" fill="#001136" stroke="#001136" stroke-width="0.2"/>
      </g>
      <g id="Group_795" data-name="Group 795">
        <circle id="Ellipse_56" data-name="Ellipse 56" cx="1.25" cy="1.25" r="1.25" transform="translate(293.8 417.75)" fill="#001136" stroke="#001136" stroke-width="0.2"/>
      </g>
    </g>
  </g>
</svg>
