<svg xmlns="http://www.w3.org/2000/svg" width="26.539" height="26.539" viewBox="0 0 26.539 26.539">
  <g id="office" transform="translate(0.25 0.25)">
    <path id="Path_456" data-name="Path 456" d="M1.521,26h.521V2.562A1.562,1.562,0,0,1,3.6,1H16.1a1.562,1.562,0,0,1,1.562,1.562v6.77h6.77A1.562,1.562,0,0,1,26,10.895V26h.521a.521.521,0,1,1,0,1.042h-25a.521.521,0,0,1,0-1.042Zm15.1-23.435a.521.521,0,0,0-.521-.521H3.6a.521.521,0,0,0-.521.521V26h8.333v-15.1a1.562,1.562,0,0,1,1.562-1.562h3.645Zm8.332,8.332a.521.521,0,0,0-.521-.521H12.978a.521.521,0,0,0-.521.521V26h12.5Zm-4.687,3.521h2.6a.521.521,0,1,0,0-1.042h-2.6a.521.521,0,1,0,0,1.042Zm-5.729,0h2.6a.521.521,0,1,0,0-1.042h-2.6a.521.521,0,0,0,0,1.042Zm5.729,4.207h2.6a.521.521,0,1,0,0-1.042h-2.6a.521.521,0,1,0,0,1.042Zm-5.729,0h2.6a.521.521,0,1,0,0-1.042h-2.6a.521.521,0,0,0,0,1.042Zm5.729,4.249h2.6a.521.521,0,1,0,0-1.042h-2.6a.521.521,0,1,0,0,1.042Zm-5.729,0h2.6a.521.521,0,1,0,0-1.042h-2.6a.521.521,0,0,0,0,1.042ZM12.457,7.249V5.166a.521.521,0,0,0-1.042,0V7.249a.521.521,0,0,0,1.042,0Zm-3.083,0V5.166a.521.521,0,1,0-1.042,0V7.249a.521.521,0,0,0,1.042,0Zm-3.083,0V5.166a.521.521,0,0,0-1.042,0V7.249a.521.521,0,0,0,1.042,0Zm3.083,5.208V10.374a.521.521,0,0,0-1.042,0v2.083a.521.521,0,0,0,1.042,0Zm-3.083,0V10.374a.521.521,0,0,0-1.042,0v2.083a.521.521,0,0,0,1.042,0Zm3.083,5.208V15.582a.521.521,0,0,0-1.042,0v2.083a.521.521,0,0,0,1.042,0Zm-3.083,0V15.582a.521.521,0,0,0-1.042,0v2.083a.521.521,0,0,0,1.042,0Zm3.083,5.208V20.79a.521.521,0,1,0-1.042,0v2.083a.521.521,0,1,0,1.042,0Zm-3.083,0V20.79a.521.521,0,1,0-1.042,0v2.083a.521.521,0,0,0,1.042,0Z" transform="translate(-1 -1)" fill="#001136" stroke="#001136" stroke-width="0.5"/>
  </g>
</svg>
