<svg id="pin" xmlns="http://www.w3.org/2000/svg" width="10.237" height="13.443" viewBox="0 0 10.237 13.443">
  <g id="Group_288" data-name="Group 288" transform="translate(0 0)">
    <path id="Path_162" data-name="Path 162" d="M71.031,3.5A4.983,4.983,0,0,0,67.785.252,5.528,5.528,0,0,0,66.163,0,5.021,5.021,0,0,0,63.13,1,5.126,5.126,0,0,0,61.043,5.12a5.073,5.073,0,0,0,1.024,3.072l4.1,5.251,4.1-5.251A5.181,5.181,0,0,0,71.031,3.5ZM66.163,7.877A2.757,2.757,0,1,1,68.92,5.12,2.76,2.76,0,0,1,66.163,7.877Z" transform="translate(-61.043 0)" fill="#001136"/>
  </g>
  <path id="Path_163" data-name="Path 163" d="M260.139,8.192l-4.1,5.251V7.877a2.757,2.757,0,0,0,0-5.514V0a5.529,5.529,0,0,1,1.623.252A4.983,4.983,0,0,1,260.911,3.5,5.182,5.182,0,0,1,260.139,8.192Z" transform="translate(-250.923 0)" fill="#001136"/>
</svg>
