<svg xmlns="http://www.w3.org/2000/svg" width="30.078" height="30.078" viewBox="0 0 30.078 30.078">
  <g id="sun-umbrella" transform="translate(0 0)">
    <path id="Path_492" data-name="Path 492" d="M2.339,127.136c5.038-3.925,8.962-1.626,14.8-.1l2.631-9.82a3.256,3.256,0,0,0-1.521.4.883.883,0,0,1-1.2-.307,3.252,3.252,0,0,0-4.378-1.16.881.881,0,0,1-1.253-1.009,9.481,9.481,0,0,1,10.761-6.927l.418-1.56a.881.881,0,1,1,1.7.456l-.418,1.56a9.481,9.481,0,0,1,5.853,11.389.882.882,0,0,1-1.6.223,3.249,3.249,0,0,0-4.373-1.167.882.882,0,0,1-1.169-.321,3.257,3.257,0,0,0-1.121-1.116l-2.62,9.78c3.369.757,6.754,1.055,9.975-.421a.881.881,0,0,1,.734,1.6c-10.1,4.629-18.7-5.9-26.14-.106a.881.881,0,0,1-1.083-1.39Zm11.4-13.143a5.012,5.012,0,0,1,3.553.988,11.094,11.094,0,0,1,3.219-5.147,7.741,7.741,0,0,0-6.772,4.16ZM28.307,117.9a7.744,7.744,0,0,0-3.793-7,11.093,11.093,0,0,1,.216,6.069A5.007,5.007,0,0,1,28.307,117.9Zm-5.3-1.3a9.217,9.217,0,0,0-.529-6.091,9.21,9.21,0,0,0-3.505,5.008A5.007,5.007,0,0,1,23.006,116.6Z" transform="translate(0 -99.767)" fill="#001136"/>
    <path id="Path_493" data-name="Path 493" d="M272.112,107.717h-.937a.881.881,0,0,1,0-1.762h.937a.881.881,0,0,1,0,1.762Z" transform="translate(-258.794 -99.731)" fill="#001136"/>
    <path id="Path_494" data-name="Path 494" d="M343.614,76.472a2.961,2.961,0,1,1,2.961-2.961A2.964,2.964,0,0,1,343.614,76.472Zm0-4.16a1.2,1.2,0,1,0,1.2,1.2A1.2,1.2,0,0,0,343.614,72.312Z" transform="translate(-336.509 -66.406)" fill="#001136"/>
    <path id="Path_495" data-name="Path 495" d="M376.936,2.7a.881.881,0,0,1-.881-.881V.881a.881.881,0,1,1,1.762,0v.937A.881.881,0,0,1,376.936,2.7Z" transform="translate(-369.831 0)" fill="#001136"/>
    <path id="Path_496" data-name="Path 496" d="M302.644,33.2a.881.881,0,1,1-1.246-1.246l.663-.663a.881.881,0,0,1,1.246,1.246Z" transform="translate(-291.177 -29.209)" fill="#001136"/>
    <path id="Path_497" data-name="Path 497" d="M302.644,169.853l.663.663a.881.881,0,0,1-1.246,1.246l-.663-.663a.881.881,0,1,1,1.246-1.246Z" transform="translate(-291.177 -159.632)" fill="#001136"/>
    <path id="Path_498" data-name="Path 498" d="M377.817,196.838v.937a.881.881,0,1,1-1.762,0v-.937a.881.881,0,1,1,1.762,0Z" transform="translate(-369.831 -184.446)" fill="#001136"/>
    <path id="Path_499" data-name="Path 499" d="M441.858,169.853a.881.881,0,0,1,0,1.246l-.663.663a.881.881,0,0,1-1.246-1.246l.663-.663A.881.881,0,0,1,441.858,169.853Z" transform="translate(-437.869 -159.632)" fill="#001136"/>
    <path id="Path_500" data-name="Path 500" d="M468.75,106.835a.881.881,0,0,1-.881.881h-.937a.881.881,0,0,1,0-1.762h.937A.881.881,0,0,1,468.75,106.835Z" transform="translate(-466.051 -99.73)" fill="#001136"/>
    <path id="Path_501" data-name="Path 501" d="M440.612,33.2l-.663-.663A.881.881,0,0,1,441.2,31.29l.663.663a.881.881,0,1,1-1.246,1.246Z" transform="translate(-437.869 -29.209)" fill="#001136"/>
  </g>
</svg>
