<svg xmlns="http://www.w3.org/2000/svg" width="1043.567" height="645.875" viewBox="0 0 1043.567 645.875">
  <path id="Path_546" data-name="Path 546" d="M1432.918,4078.223c48.46-67.6,131.924-65.913,176.984-65.963,2.21,0,4.41.01,6.61.01,55.66.12,358.2.34,486.08.38,12.45.01,21.73.01,27.15.01,43.54.09,89.64-16.42,125.14-46.05a173.5,173.5,0,0,0,46.91-60.41c8.99-19.5,13.57-42.9,13.69-66.72.19-39.75-12.05-80.66-37-106.56a180.947,180.947,0,0,0-23.6-20.57c-44.04-32.21-99.84-43.53-152.29-46.04q-10.26-.5-20.3-.56c-164.849-1.373-329.806-.446-494.645.519l-145.543.851c-51.5.3-122.132-7.749-151.182-58.02-15.114-23.465-17.294-48.03-18-64.12,4.431-65.152,52.484-108.63,122.554-111.71,1.85-.08,3.71-.12,5.57-.13" transform="translate(-1272.417 -3432.64)" fill="none" stroke="#fb7d76" stroke-miterlimit="10" stroke-width="1" stroke-dasharray="4" opacity="0.7"/>
</svg>
