<svg aria-hidden="true" style="position: absolute; width: 0; height: 0; overflow: hidden;" version="1.1" xmlns="http://www.w3.org/2000/svg" xmlns:xlink="http://www.w3.org/1999/xlink">
<defs>
<symbol id="icon-address" viewBox="0 0 32 32">
<path fill="#fff" style="fill: var(--color1, #fff)" d="M27.243 22.336l-4.858-4.431-4.856 4.43v6.306c0 0.491 0.399 0.891 0.891 0.891h7.93c0.492 0 0.891-0.399 0.891-0.891v0zM30.452 25.262l-0.706-0.64v4.020c0 1.873-1.524 3.395-3.395 3.395h-7.93c-1.873 0-3.397-1.524-3.397-3.395v-4.021l-0.704 0.643-1.688-1.85 9.752-8.899 9.754 8.899zM12.837 9.996c-1.554 0-2.818 1.265-2.818 2.818 0 1.554 1.265 2.818 2.819 2.818 1.553 0 2.816-1.265 2.816-2.819 0-1.553-1.265-2.816-2.818-2.816zM12.837 7.491c2.938 0.003 5.319 2.384 5.323 5.322v0c-0.003 2.938-2.384 5.319-5.322 5.323h-0c-2.938-0.003-5.319-2.384-5.323-5.322v-0c0.003-2.938 2.384-5.319 5.322-5.323h0zM20.541 23.208h3.756v3.758h-3.756zM12.838 28.763v3.256l-0.786-0.637c-2.164-1.812-4.109-3.714-5.899-5.756l-0.052-0.060c-4.049-4.648-6.101-8.818-6.101-12.398v-0.355c0-7.078 5.76-12.837 12.837-12.837 7.078 0 12.837 5.758 12.837 12.837v0.355c0 0.3-0.015 0.605-0.046 0.914l-2.51-2.29c-0.514-5.219-4.928-9.31-10.281-9.31-5.703 0.007-10.325 4.628-10.331 10.331v0.356c0 6.050 7.794 13.371 10.331 15.595z"></path>
</symbol>
<symbol id="icon-email" viewBox="0 0 32 32">
<path fill="#fff" style="fill: var(--color1, #fff)" d="M29.012 3.692h-24.815c-2.317 0.003-4.194 1.88-4.197 4.197v15.931c0.003 2.317 1.88 4.194 4.197 4.197h24.815c2.317-0.003 4.194-1.88 4.197-4.197v-15.931c-0.003-2.317-1.88-4.194-4.197-4.197h-0zM28.357 6.4l-11.751 9.083-11.754-9.083zM29.012 25.312h-24.815c-0.822-0.001-1.488-0.667-1.489-1.489v-15.66l13.071 10.092c0.226 0.176 0.514 0.282 0.827 0.282s0.601-0.106 0.83-0.284l-0.003 0.002 13.071-10.092v15.658c0 0.824-0.668 1.492-1.492 1.492v0z"></path>
</symbol>
<symbol id="icon-home-m" viewBox="0 0 32 32">
<path fill="#fff" style="fill: var(--color1, #fff)" d="M25.347 9.071c-0.516 0.020-0.926 0.443-0.926 0.962s0.41 0.942 0.924 0.962l0.002 0h2.887v10.268h-12.192v-2.888c0-0.532-0.431-0.963-0.963-0.963s-0.963 0.431-0.963 0.963v0 2.887h-3.208v-17.967h3.208v10.588c0 0.532 0.431 0.963 0.963 0.963s0.963-0.431 0.963-0.963v0-2.887h4.813c0.532 0 0.963-0.431 0.963-0.963s-0.431-0.963-0.963-0.963h-4.814v-5.773h12.193v5.774zM29.197 1.369h-19.251c-0.531 0.001-0.961 0.431-0.961 0.961v19.893c0 0.531 0.431 0.963 0.961 0.963h19.251c0.531 0 0.963-0.431 0.963-0.963v-19.891c-0.001-0.531-0.432-0.961-0.963-0.961 0 0 0 0 0 0v0z"></path>
<path fill="#fff" style="fill: var(--color1, #fff)" d="M29.877 27.32l-1.926-1.926c-0.171-0.16-0.402-0.258-0.656-0.258-0.532 0-0.963 0.431-0.963 0.963 0 0.254 0.098 0.484 0.258 0.656l-0.001-0.001 0.282 0.282h-18.456l0.282-0.282c0.189-0.176 0.307-0.427 0.307-0.705 0-0.532-0.431-0.963-0.963-0.963-0.278 0-0.529 0.118-0.704 0.306l-0.001 0.001-1.926 1.926c-0.174 0.174-0.281 0.415-0.281 0.68s0.107 0.506 0.281 0.68l1.926 1.926c0.175 0.181 0.42 0.293 0.692 0.293 0.532 0 0.963-0.431 0.963-0.963 0-0.272-0.113-0.517-0.293-0.692l-0-0-0.282-0.281h18.454l-0.282 0.281c-0.168 0.173-0.271 0.409-0.271 0.67 0 0.532 0.431 0.963 0.963 0.963 0.26 0 0.496-0.103 0.669-0.271l-0 0 1.926-1.926c0.376-0.376 0.374-0.988 0-1.361z"></path>
<path fill="#fff" style="fill: var(--color1, #fff)" d="M5.415 21.544l-0.282 0.281v-17.169l0.282 0.281c0.176 0.189 0.427 0.307 0.705 0.307 0.532 0 0.963-0.431 0.963-0.963 0-0.278-0.118-0.529-0.306-0.704l-0.001-0.001-1.924-1.926c-0.174-0.174-0.415-0.282-0.681-0.282s-0.507 0.108-0.681 0.282l-1.924 1.926c-0.189 0.176-0.307 0.427-0.307 0.705 0 0.532 0.431 0.963 0.963 0.963 0.278 0 0.529-0.118 0.704-0.306l0.001-0.001 0.282-0.281v17.169l-0.282-0.281c-0.176-0.189-0.427-0.307-0.705-0.307-0.532 0-0.963 0.431-0.963 0.963 0 0.278 0.118 0.529 0.306 0.704l0.001 0.001 1.924 1.926c0.376 0.376 0.986 0.376 1.362 0l1.924-1.926c0.189-0.176 0.307-0.427 0.307-0.705 0-0.532-0.431-0.963-0.963-0.963-0.278 0-0.529 0.118-0.704 0.306l-0.001 0.001z"></path>
</symbol>
<symbol id="icon-phone-call" viewBox="0 0 32 32">
<path fill="#fff" style="fill: var(--color1, #fff); stroke: var(--color1, #fff)" stroke="#fff" stroke-linejoin="miter" stroke-linecap="butt" stroke-miterlimit="4" stroke-width="0.4209" d="M22.426 25.431l-2.93-2.93c-0.393-0.392-0.935-0.634-1.533-0.634s-1.14 0.242-1.533 0.634l-1.288 1.288c-2.963-1.574-5.327-3.937-6.861-6.811l-0.043-0.088 1.288-1.288c0.392-0.393 0.634-0.935 0.634-1.533s-0.242-1.14-0.634-1.533l-2.93-2.93c-0.393-0.392-0.935-0.634-1.533-0.634s-1.14 0.242-1.533 0.634l0-0-2.34 2.345c-1.225 1.225-1.263 3.384-0.107 6.081 1.386 2.926 3.193 5.422 5.376 7.53l0.008 0.007c2.115 2.191 4.611 3.998 7.383 5.318l0.154 0.066c1.023 0.488 2.218 0.793 3.479 0.841l0.017 0.001c0.053 0.003 0.115 0.004 0.177 0.004 0.932 0 1.779-0.362 2.409-0.953l-0.002 0.002 2.345-2.345c0.393-0.392 0.635-0.934 0.635-1.533s-0.243-1.141-0.635-1.533v0zM21.117 27.189l-2.345 2.345c-0.631 0.631-2.147 0.528-4.043-0.284-2.701-1.287-5.005-2.961-6.951-4.983l-0.007-0.008c-2.029-1.953-3.704-4.257-4.929-6.816l-0.061-0.142c-0.812-1.894-0.92-3.408-0.284-4.043l2.345-2.345c0.058-0.058 0.137-0.094 0.225-0.094s0.168 0.036 0.225 0.094v0l2.93 2.93c0.058 0.058 0.094 0.137 0.094 0.225s-0.036 0.168-0.094 0.225v0l-2.22 2.22 0.28 0.589c1.837 3.806 4.839 6.806 8.537 8.595l0.109 0.047 0.589 0.28 2.22-2.22c0.058-0.058 0.137-0.094 0.225-0.094s0.168 0.036 0.225 0.094v0l2.93 2.93c0.058 0.058 0.094 0.137 0.094 0.225s-0.036 0.168-0.094 0.225v0z"></path>
<path fill="#fff" style="fill: var(--color1, #fff); stroke: var(--color1, #fff)" stroke="#fff" stroke-linejoin="miter" stroke-linecap="butt" stroke-miterlimit="4" stroke-width="0.4209" d="M28.973 2.601c-1.812-1.489-4.155-2.391-6.709-2.391s-4.897 0.902-6.727 2.406l0.019-0.015c-1.725 1.421-2.824 3.548-2.852 5.933l-0 0.005c0.027 2.389 1.127 4.516 2.839 5.927l0.013 0.011c0.311 0.267 0.655 0.522 1.015 0.754l0.037 0.023c-0.706 1.050-1.486 1.963-2.359 2.778l-0.009 0.008c2.012-0.169 3.863-0.694 5.546-1.514l-0.092 0.041c0.766 0.191 1.646 0.301 2.551 0.301 0.005 0 0.010 0 0.015 0h-0.001c0.036 0 0.078 0.001 0.12 0.001 2.517 0 4.823-0.905 6.61-2.407l-0.016 0.013c1.725-1.421 2.824-3.548 2.852-5.933l0-0.005c-0.028-2.389-1.127-4.515-2.839-5.925l-0.013-0.011zM22.266 15.019c-0.167 0.014-0.362 0.022-0.559 0.022-3.726 0-6.789-2.837-7.148-6.468l-0.002-0.030c0.665-3.705 3.864-6.48 7.711-6.48s7.046 2.775 7.703 6.433l0.007 0.048c-0.363 3.66-3.426 6.494-7.15 6.494-0.2 0-0.398-0.008-0.593-0.024l0.026 0.002z"></path>
<path fill="#fff" style="fill: var(--color1, #fff); stroke: var(--color1, #fff)" stroke="#fff" stroke-linejoin="miter" stroke-linecap="butt" stroke-miterlimit="4" stroke-width="0.4209" d="M23.493 8.537c0 0.681-0.552 1.233-1.233 1.233s-1.233-0.552-1.233-1.233c0-0.681 0.552-1.233 1.233-1.233s1.233 0.552 1.233 1.233z"></path>
<path fill="#fff" style="fill: var(--color1, #fff); stroke: var(--color1, #fff)" stroke="#fff" stroke-linejoin="miter" stroke-linecap="butt" stroke-miterlimit="4" stroke-width="0.4209" d="M19.174 8.537c0 0.681-0.552 1.233-1.233 1.233s-1.233-0.552-1.233-1.233c0-0.681 0.552-1.233 1.233-1.233s1.233 0.552 1.233 1.233z"></path>
<path fill="#fff" style="fill: var(--color1, #fff); stroke: var(--color1, #fff)" stroke="#fff" stroke-linejoin="miter" stroke-linecap="butt" stroke-miterlimit="4" stroke-width="0.4209" d="M27.81 8.537c0 0.681-0.552 1.233-1.233 1.233s-1.233-0.552-1.233-1.233c0-0.681 0.552-1.233 1.233-1.233s1.233 0.552 1.233 1.233z"></path>
</symbol>
<symbol id="icon-place" viewBox="0 0 32 32">
<path fill="#fff" style="fill: var(--color1, #fff)" d="M26.538 5.558c-2.361-3.376-6.23-5.557-10.609-5.557s-8.248 2.181-10.581 5.515l-0.028 0.042c-1.45 2.058-2.317 4.617-2.317 7.379 0 1.621 0.299 3.173 0.845 4.602l-0.030-0.089c0.463 1.192 1.097 2.218 1.883 3.105l-0.009-0.011 9.388 11.026c0.206 0.242 0.511 0.394 0.851 0.394s0.645-0.152 0.85-0.392l0.001-0.002 9.386-11.024c0.776-0.875 1.41-1.898 1.85-3.019l0.024-0.069c0.517-1.342 0.816-2.894 0.816-4.517 0-2.764-0.868-5.324-2.347-7.424l0.027 0.041zM25.938 16.674c-0.366 0.93-0.864 1.73-1.481 2.422l0.007-0.008-8.536 10.026-8.54-10.026c-0.611-0.686-1.11-1.489-1.457-2.368l-0.019-0.054c-0.426-1.108-0.672-2.39-0.672-3.729 0-2.287 0.719-4.405 1.943-6.143l-0.023 0.034c1.952-2.791 5.151-4.594 8.771-4.594s6.819 1.803 8.748 4.56l0.023 0.034c1.201 1.703 1.92 3.822 1.92 6.108 0 1.343-0.248 2.627-0.7 3.811l0.025-0.073z"></path>
<path fill="#fff" style="fill: var(--color1, #fff)" d="M15.93 6.63c-3.456 0-6.258 2.802-6.258 6.258s2.802 6.258 6.258 6.258c3.456 0 6.258-2.802 6.258-6.258v0c-0.005-3.454-2.804-6.253-6.258-6.258h-0zM15.93 16.912c-2.222 0-4.024-1.802-4.024-4.024s1.802-4.024 4.024-4.024c2.222 0 4.024 1.802 4.024 4.024v0c-0.002 2.221-1.803 4.022-4.024 4.024h-0z"></path>
</symbol>
</defs>
</svg>