<svg xmlns="http://www.w3.org/2000/svg" width="21" height="21" viewBox="0 0 21 21"><g><g><path fill="#fff" d="M17.878 14.658L14.69 11.75l-3.187 2.907v4.138c0 .322.262.585.585.585h5.204a.585.585 0 0 0 .585-.585zm2.106 1.92l-.463-.42v2.638c0 1.229-1 2.228-2.228 2.228h-5.204c-1.229 0-2.229-1-2.229-2.228v-2.639l-.462.422-1.108-1.214 6.4-5.84 6.401 5.84zM8.424 6.56c-1.02 0-1.849.83-1.849 1.849 0 1.02.83 1.849 1.85 1.849 1.019 0 1.848-.83 1.848-1.85 0-1.019-.83-1.848-1.849-1.848zm0-1.644a3.497 3.497 0 0 1 3.493 3.493 3.497 3.497 0 0 1-3.493 3.493 3.497 3.497 0 0 1-3.493-3.493 3.497 3.497 0 0 1 3.493-3.493zM13.48 15.23h2.465v2.466H13.48zm-5.055 3.646v2.137l-.516-.418a34.63 34.63 0 0 1-3.905-3.817C1.347 13.728 0 10.991 0 8.642v-.233C0 3.764 3.78-.015 8.424-.015c4.645 0 8.424 3.779 8.424 8.424v.233c0 .197-.01.397-.03.6l-1.647-1.503c-.337-3.425-3.234-6.11-6.747-6.11a6.788 6.788 0 0 0-6.78 6.78v.233c0 3.97 5.115 8.775 6.78 10.234z"/></g></g></svg>