<svg xmlns="http://www.w3.org/2000/svg" width="49.886" height="49.885" viewBox="0 0 49.886 49.885">
  <g id="convenience-store" transform="translate(0.145 0.15)">
    <path id="Path_458" data-name="Path 458" d="M45.051,2.983A2.975,2.975,0,0,0,42.265,1H9.32A2.975,2.975,0,0,0,6.534,2.983C.772,18.345,1,17.522,1,17.859c.139,1.061-.635,4.155,1.983,6.833V48.6H1.992a.992.992,0,0,0,0,1.983h47.6a.992.992,0,0,0,0-1.983H48.6v-24c2.588-2.757,1.854-5.851,1.983-6.744C50.585,17.522,50.813,18.355,45.051,2.983Zm-2.787,0a.992.992,0,0,1,.932.645l4.959,13.239H38.516L35.908,2.983Zm-15.481,0h7.111L36.5,16.867H26.784Zm0,15.867H36.7v.992a4.959,4.959,0,1,1-9.917,0ZM24.8,2.983V16.867H15.082L17.69,2.983Zm0,15.867v.992c0,6.506-9.917,6.734-9.917-.248v-.744ZM8.388,3.628a.992.992,0,0,1,.932-.645h6.357L13.069,16.867H3.42Zm-5.4,16.214v-.992H12.9v.744A5.127,5.127,0,0,1,8.091,24.8a4.959,4.959,0,0,1-5.107-4.959ZM20.834,48.6H10.917V36.7h9.917ZM11.016,34.718a4.959,4.959,0,0,1,1.468-2.608L14.1,34.718Zm3.154-3.649a4.76,4.76,0,0,1,3.411,0l-1.706,2.757Zm3.481,3.649,1.616-2.608a4.959,4.959,0,0,1,1.468,2.608ZM46.618,48.6h-23.8V35.71a6.942,6.942,0,1,0-13.884,0V48.6H4.967V26.11a6.833,6.833,0,0,0,8.925-2.777,6.942,6.942,0,0,0,11.9.069,6.942,6.942,0,0,0,11.9,0,6.843,6.843,0,0,0,8.925,2.668ZM48.6,19.594a5.127,5.127,0,0,1-4.81,5.206,4.959,4.959,0,0,1-5.107-4.959v-.992H48.6Zm-8.925,9.173h-11.9A2.975,2.975,0,0,0,24.8,31.743V41.66a2.975,2.975,0,0,0,2.975,2.975h11.9a2.975,2.975,0,0,0,2.975-2.975V31.743A2.975,2.975,0,0,0,39.676,28.768Zm.992,12.892a.992.992,0,0,1-.992.992h-11.9a.992.992,0,0,1-.992-.992V31.743a.992.992,0,0,1,.992-.992h11.9a.992.992,0,0,1,.992.992Zm-23.8.992V40.668a.992.992,0,1,1,1.983,0v1.983a.992.992,0,1,1-1.983,0Z" transform="translate(-0.994 -1)" fill="#3259fc" stroke="#3259fc" stroke-width="0.3"/>
  </g>
</svg>
