<svg xmlns="http://www.w3.org/2000/svg" width="13.491" height="9.882" viewBox="0 0 13.491 9.882">
  <g id="email_1_" data-name="email (1)" transform="translate(0 -24.61)">
    <path id="Path_74" data-name="Path 74" d="M11.786,24.61H1.705A1.707,1.707,0,0,0,0,26.315v6.472a1.707,1.707,0,0,0,1.705,1.705H11.786a1.707,1.707,0,0,0,1.705-1.705V26.315A1.707,1.707,0,0,0,11.786,24.61Zm-.266,1.1L6.746,29.4,1.971,25.71Zm.266,7.683H1.705a.606.606,0,0,1-.605-.605V26.426l5.31,4.1a.55.55,0,0,0,.672,0l5.31-4.1v6.361A.606.606,0,0,1,11.786,33.393Z" transform="translate(0 0)" fill="#fff"/>
  </g>
</svg>
