<svg xmlns="http://www.w3.org/2000/svg" width="32.247" height="39.727" viewBox="0 0 32.247 39.727">
  <g id="favorite" transform="translate(0)" opacity="0.497">
    <g id="Group_683" data-name="Group 683" transform="translate(0)">
      <path id="Path_465" data-name="Path 465" d="M79.283,0H49.364A1.164,1.164,0,0,0,48.2,1.164v37.4A1.164,1.164,0,0,0,49.884,39.6l14.439-7.219L78.763,39.6a1.164,1.164,0,0,0,1.684-1.041V1.164A1.164,1.164,0,0,0,79.283,0ZM72.616,14.912l-3.3,3.218.769,4.481a1.165,1.165,0,0,1-1.133,1.424h0A1.162,1.162,0,0,1,68.4,23.9l-4.081-2.145L60.242,23.9a1.164,1.164,0,0,1-1.689-1.227l.78-4.544-3.3-3.218a1.164,1.164,0,0,1,.645-1.985l4.563-.663,2.04-4.135a1.164,1.164,0,0,1,2.087,0l2.041,4.135,4.563.663a1.164,1.164,0,0,1,.645,1.985Z" transform="translate(-48.2)" fill="#001136"/>
    </g>
  </g>
</svg>
