<svg xmlns="http://www.w3.org/2000/svg" width="18.448" height="17.917" viewBox="0 0 18.448 17.917">
  <g id="Group_513" data-name="Group 513" transform="translate(0.25 0.263)">
    <g id="share">
      <g id="Group_322" data-name="Group 322" transform="translate(5.986 0)">
        <g id="Group_321" data-name="Group 321">
          <path id="Path_175" data-name="Path 175" d="M183,33.931l-4.518-4.5a.681.681,0,0,0-1.162.483v2.041a5.871,5.871,0,0,0-3.56,1.262,6.829,6.829,0,0,0-2.405,6.164l0,.027.091.522a.681.681,0,0,0,1.255.234l.272-.454c1.488-2.475,3.327-2.873,4.343-2.877v2.117a.681.681,0,0,0,1.164.48L183,34.894A.681.681,0,0,0,183,33.931ZM178.685,37.3v-1.1a.681.681,0,0,0-.573-.673,5.86,5.86,0,0,0-5.4,2.215,5.389,5.389,0,0,1,1.931-3.492.43.43,0,0,0,.037-.033,5,5,0,0,1,3.252-.923H178a.681.681,0,0,0,.681-.681V31.557l2.874,2.859Z" transform="translate(-171.297 -29.237)" fill="#001136" stroke="#001136" stroke-width="0.5"/>
        </g>
      </g>
      <g id="Group_324" data-name="Group 324" transform="translate(0 3.133)">
        <g id="Group_323" data-name="Group 323">
          <path id="Path_176" data-name="Path 176" d="M15.213,127.647a.681.681,0,0,0-.681.681v3.486H1.362V120.267H5.449a.681.681,0,0,0,0-1.362H.681a.681.681,0,0,0-.681.681v12.909a.681.681,0,0,0,.681.681H15.213a.681.681,0,0,0,.681-.681v-4.167A.681.681,0,0,0,15.213,127.647Z" transform="translate(0 -118.905)" fill="#001136" stroke="#001136" stroke-width="0.5"/>
        </g>
      </g>
    </g>
  </g>
</svg>
