<svg xmlns="http://www.w3.org/2000/svg" width="23" height="23" viewBox="0 0 23 23"><g><g><g><g><g><path fill="#fff" d="M20.293 6.52zm-2.075 0a.692.692 0 0 0 0 1.383h2.075v7.38H11.53v-2.076a.692.692 0 0 0-1.384 0v2.075H7.84V2.368h2.306v7.61a.692.692 0 0 0 1.384 0V7.903h3.459a.692.692 0 0 0 0-1.384h-3.46V2.37h8.764v4.15zM20.985.984H7.148a.692.692 0 0 0-.691.691v14.298c0 .382.31.692.691.692h13.837c.382 0 .692-.31.692-.692V1.676a.692.692 0 0 0-.692-.691z"/><path fill="none" stroke="#fff" stroke-miterlimit="20" stroke-width=".2" d="M20.293 6.52v0h0zm-2.075 0a.692.692 0 0 0 0 1.383h2.075v7.38H11.53v-2.076a.692.692 0 0 0-1.384 0v2.075H7.84V2.368h2.306v7.61a.692.692 0 0 0 1.384 0V7.903h3.459a.692.692 0 0 0 0-1.384h-3.46V2.37h8.764v4.15zM20.985.984H7.148a.692.692 0 0 0-.691.691v14.298c0 .382.31.692.691.692h13.837c.382 0 .692-.31.692-.692V1.676a.692.692 0 0 0-.692-.691z"/></g></g></g><g><g><g><path fill="#fff" d="M21.474 19.636l-1.384-1.384a.692.692 0 0 0-.978.978l.203.203H6.05l.203-.203a.692.692 0 1 0-.978-.978l-1.384 1.384a.693.693 0 0 0 0 .978l1.384 1.384a.692.692 0 1 0 .978-.979l-.203-.202h13.264l-.203.202a.692.692 0 0 0 .978.979l1.384-1.384c.27-.27.269-.71 0-.978z"/><path fill="none" stroke="#fff" stroke-miterlimit="20" stroke-width=".2" d="M21.474 19.636v0l-1.384-1.384a.692.692 0 0 0-.978.978l.203.203v0H6.05v0l.203-.203a.692.692 0 1 0-.978-.978l-1.384 1.384a.693.693 0 0 0 0 .978l1.384 1.384a.692.692 0 1 0 .978-.979l-.203-.202v0h13.264v0l-.203.202a.692.692 0 0 0 .978.979l1.384-1.384c.27-.27.269-.71 0-.978z"/></g></g></g><g><g><g><path fill="#fff" d="M3.892 15.485l-.203.202V3.347l.203.202a.692.692 0 1 0 .978-.978L3.487 1.187a.692.692 0 0 0-.979 0L1.125 2.571a.692.692 0 1 0 .978.978l.203-.202v12.34l-.203-.202a.692.692 0 1 0-.978.978l1.383 1.384c.27.27.709.27.979 0l1.383-1.384a.692.692 0 1 0-.978-.978z"/><path fill="none" stroke="#fff" stroke-miterlimit="20" stroke-width=".2" d="M3.892 15.485l-.203.202v0-12.34 0l.203.202a.692.692 0 1 0 .978-.978L3.487 1.187a.692.692 0 0 0-.979 0L1.125 2.571a.692.692 0 1 0 .978.978l.203-.202v12.34l-.203-.202a.692.692 0 1 0-.978.978l1.383 1.384c.27.27.709.27.979 0l1.383-1.384a.692.692 0 1 0-.978-.978z"/></g></g></g></g></g></svg>