<svg xmlns="http://www.w3.org/2000/svg" width="56.113" height="53.298" viewBox="0 0 56.113 53.298">
  <g id="house" transform="translate(0.157 0.182)">
    <path id="Path_460" data-name="Path 460" d="M55.683,54.273H54.567V16.809l.737.268a1.116,1.116,0,0,0,.759-2.1L24.759,3.6A1.116,1.116,0,0,0,24,5.694l3.783,1.373v2.9L1.737,19.443a1.116,1.116,0,0,0,.759,2.1l.737-.268v33H2.116a1.116,1.116,0,0,0,0,2.232H55.683a1.116,1.116,0,0,0,0-2.232Zm-33.48,0H11.044V52.041H22.2Zm0-4.464H11.044V47.577H22.2Zm0-4.464H11.044V43.113H22.2Zm0-4.464H11.044V38.649H22.2Zm5.58,13.392H24.436V38.649A2.232,2.232,0,0,0,22.2,36.417H11.044a2.232,2.232,0,0,0-2.232,2.232V54.273H5.464V20.458l22.32-8.113Zm16.74,0h-6.7V43.113h6.7Zm7.812-22.32H50.1V20.793h2.232Zm0-13.392H36.712a2.232,2.232,0,0,0-2.232,2.232v11.16a2.232,2.232,0,0,0,2.232,2.232H52.335V54.273h-5.58V43.113a2.232,2.232,0,0,0-2.232-2.232h-6.7A2.232,2.232,0,0,0,35.6,43.113v11.16h-5.58V7.881l22.32,8.113Zm-4.464,2.232v11.16H43.408V20.793Zm-6.7,0v11.16H36.712V20.793ZM12.16,29.721H22.2a2.232,2.232,0,0,0,2.232-2.232V25.257A2.232,2.232,0,0,0,22.2,23.025H12.16a2.232,2.232,0,0,0-2.232,2.232v2.232A2.232,2.232,0,0,0,12.16,29.721Zm0-4.464H22.2v2.232H12.16Z" transform="translate(-1 -3.539)" fill="#3259fc" stroke="#3259fc" stroke-width="0.3"/>
  </g>
</svg>
