<svg xmlns="http://www.w3.org/2000/svg" width="18" height="18" viewBox="0 0 18 18"><g><g><g><path fill="#fff" d="M8.942 11.444a2.86 2.86 0 1 1 0-5.72 2.86 2.86 0 1 1 0 5.72zm0-7.267a4.406 4.406 0 1 0-.001 8.813 4.406 4.406 0 0 0 0-8.813z"/></g><g><path fill="#fff" d="M14.98 14.632c-1.082 1.083-2.584.986-6.059.986-3.578 0-5.013.053-6.06-.996-1.205-1.2-.987-3.128-.987-6.05 0-3.953-.406-6.8 3.562-7.004.912-.032 1.18-.043 3.475-.043l.032.022c3.814 0 6.806-.4 6.985 3.568.041.905.05 1.177.05 3.468 0 3.537.067 4.98-.997 6.05zM12.48.054c-1.58-.074-5.494-.07-7.075 0-1.39.065-2.616.4-3.604 1.389C.149 3.095.36 5.32.36 8.584c0 3.34-.187 5.514 1.44 7.141 1.658 1.657 3.916 1.44 7.14 1.44 3.31 0 4.452.003 5.622-.45 1.59-.618 2.792-2.04 2.909-4.594.074-1.58.07-5.493 0-7.075C17.33 2.031 15.712.203 12.48.054z"/></g><g><path fill="#fff" d="M12.493 4.003a1.03 1.03 0 1 1 2.06 0 1.03 1.03 0 0 1-2.06 0z"/></g></g></g></svg>