<svg xmlns="http://www.w3.org/2000/svg" width="17" height="17" viewBox="0 0 17 17"><g><g><g><path fill="#fff" d="M17.07 16.27h.004v-5.968c0-2.919-.629-5.167-4.041-5.167-1.64 0-2.742.9-3.191 1.753h-.048v-1.48H6.56v10.861h3.369v-5.378c0-1.416.268-2.786 2.022-2.786 1.728 0 1.754 1.616 1.754 2.877v5.288z"/></g><g><path fill="#fff" d="M1.072 5.408h3.373V16.27H1.072z"/></g><g><path fill="#fff" d="M2.757 0A1.954 1.954 0 0 0 .804 1.954c0 1.078.875 1.972 1.953 1.972 1.079 0 1.954-.894 1.954-1.972A1.955 1.955 0 0 0 2.757 0z"/></g></g></g></svg>