<svg xmlns="http://www.w3.org/2000/svg" width="51.776" height="51.776" viewBox="0 0 51.776 51.776">
  <g id="office" transform="translate(0.15 0.15)">
    <path id="Path_456" data-name="Path 456" d="M51.446,50.417h-1.03V4.089A3.089,3.089,0,0,0,47.328,1H22.62a3.089,3.089,0,0,0-3.089,3.089V17.472H6.148a3.089,3.089,0,0,0-3.089,3.089V50.417H2.03a1.03,1.03,0,1,0,0,2.059H51.446a1.03,1.03,0,0,0,0-2.059ZM21.59,4.089a1.03,1.03,0,0,1,1.03-1.03H47.328a1.03,1.03,0,0,1,1.03,1.03V50.417H31.885V20.561A3.089,3.089,0,0,0,28.8,17.472H21.59ZM5.118,20.561a1.03,1.03,0,0,1,1.03-1.03H28.8a1.03,1.03,0,0,1,1.03,1.03V50.417H5.118Zm9.266,5.148H9.236a1.03,1.03,0,0,1,0-2.059h5.148a1.03,1.03,0,1,1,0,2.059Zm11.325,0H20.561a1.03,1.03,0,1,1,0-2.059h5.148a1.03,1.03,0,1,1,0,2.059ZM14.384,31.885H9.236a1.03,1.03,0,0,1,0-2.059h5.148a1.03,1.03,0,0,1,0,2.059Zm11.325,0H20.561a1.03,1.03,0,1,1,0-2.059h5.148a1.03,1.03,0,1,1,0,2.059ZM14.384,38.063H9.236a1.03,1.03,0,0,1,0-2.059h5.148a1.03,1.03,0,1,1,0,2.059Zm11.325,0H20.561a1.03,1.03,0,1,1,0-2.059h5.148a1.03,1.03,0,1,1,0,2.059ZM14.384,44.24H9.236a1.03,1.03,0,0,1,0-2.059h5.148a1.03,1.03,0,0,1,0,2.059Zm11.325,0H20.561a1.03,1.03,0,0,1,0-2.059h5.148a1.03,1.03,0,0,1,0,2.059Zm2.059-35v4.118a1.03,1.03,0,1,1-2.059,0V9.236a1.03,1.03,0,1,1,2.059,0Zm2.059,4.118V9.236a1.03,1.03,0,0,1,2.059,0v4.118a1.03,1.03,0,1,1-2.059,0Zm4.118,0V9.236a1.03,1.03,0,1,1,2.059,0v4.118a1.03,1.03,0,1,1-2.059,0Zm4.118,0V9.236a1.03,1.03,0,1,1,2.059,0v4.118a1.03,1.03,0,1,1-2.059,0Zm4.118,0V9.236a1.03,1.03,0,0,1,2.059,0v4.118a1.03,1.03,0,1,1-2.059,0Zm-8.236,10.3V19.531a1.03,1.03,0,0,1,2.059,0v4.118a1.03,1.03,0,1,1-2.059,0Zm4.118,0V19.531a1.03,1.03,0,0,1,2.059,0v4.118a1.03,1.03,0,1,1-2.059,0Zm4.118,0V19.531a1.03,1.03,0,0,1,2.059,0v4.118a1.03,1.03,0,1,1-2.059,0Zm-8.236,10.3V29.826a1.03,1.03,0,0,1,2.059,0v4.118a1.03,1.03,0,1,1-2.059,0Zm4.118,0V29.826a1.03,1.03,0,0,1,2.059,0v4.118a1.03,1.03,0,1,1-2.059,0Zm4.118,0V29.826a1.03,1.03,0,0,1,2.059,0v4.118a1.03,1.03,0,0,1-2.059,0Zm-8.236,10.3V40.122a1.03,1.03,0,1,1,2.059,0V44.24a1.03,1.03,0,1,1-2.059,0Zm4.118,0V40.122a1.03,1.03,0,1,1,2.059,0V44.24a1.03,1.03,0,1,1-2.059,0Zm4.118,0V40.122a1.03,1.03,0,0,1,2.059,0V44.24a1.03,1.03,0,1,1-2.059,0Z" transform="translate(-1 -1)" fill="#3259fc" stroke="#3259fc" stroke-width="0.3"/>
  </g>
</svg>
