<svg xmlns="http://www.w3.org/2000/svg" width="12.93" height="15.981" viewBox="0 0 12.93 15.981">
  <g id="place" transform="translate(-48.886)">
    <g id="Group_45" data-name="Group 45" transform="translate(48.886)">
      <g id="Group_44" data-name="Group 44">
        <path id="Path_72" data-name="Path 72" d="M60.655,2.779a6.453,6.453,0,0,0-10.609,0,6.454,6.454,0,0,0-.751,5.946,5.083,5.083,0,0,0,.937,1.547l4.694,5.513a.558.558,0,0,0,.851,0l4.693-5.512a5.088,5.088,0,0,0,.937-1.544A6.455,6.455,0,0,0,60.655,2.779Zm-.3,5.558a3.986,3.986,0,0,1-.737,1.207l0,0-4.268,5.013L51.08,9.544a3.988,3.988,0,0,1-.738-1.211,5.338,5.338,0,0,1,.624-4.919,5.335,5.335,0,0,1,8.771,0A5.339,5.339,0,0,1,60.359,8.337Z" transform="translate(-48.886)" fill="#fff"/>
      </g>
    </g>
    <g id="Group_47" data-name="Group 47" transform="translate(52.222 3.315)">
      <g id="Group_46" data-name="Group 46">
        <path id="Path_73" data-name="Path 73" d="M158.883,106.219a3.129,3.129,0,1,0,3.129,3.129A3.133,3.133,0,0,0,158.883,106.219Zm0,5.141a2.012,2.012,0,1,1,2.012-2.012A2.014,2.014,0,0,1,158.883,111.36Z" transform="translate(-155.754 -106.219)" fill="#fff"/>
      </g>
    </g>
  </g>
</svg>
