<svg xmlns="http://www.w3.org/2000/svg" width="10.728" height="11.92" viewBox="0 0 10.728 11.92">
  <path id="Path_44" data-name="Path 44" d="M144.061,134.556c0,4.291-6.154,5.312-6.416,5.354a.912.912,0,0,1-.14.011.895.895,0,0,1-.894-.894v-3.268l-2.052.821a.91.91,0,0,1-.332.063.894.894,0,0,1-.331-1.725l2.716-1.086v-1.055l-2.052.821a.879.879,0,0,1-.332.064.894.894,0,0,1-.331-1.724l2.716-1.086v-1.957a.894.894,0,0,1,1.788,0v1.242l1.457-.583a.894.894,0,1,1,.664,1.661l-2.121.848v1.056l1.457-.583a.894.894,0,1,1,.664,1.661l-2.121.848v2.86c1.44-.408,3.874-1.388,3.874-3.346a.894.894,0,0,1,1.788,0Z" transform="translate(-133.332 -128)" fill="#001136"/>
</svg>
