<svg xmlns="http://www.w3.org/2000/svg" width="17" height="14" viewBox="0 0 17 14"><g><g><g><g><path fill="#fff" d="M17.026 1.65a7.333 7.333 0 0 1-2.027.556A3.497 3.497 0 0 0 16.547.262c-.68.405-1.43.691-2.23.851a3.516 3.516 0 0 0-6.084 2.405c0 .279.023.547.08.802A9.955 9.955 0 0 1 1.065.641a3.522 3.522 0 0 0 1.08 4.7A3.473 3.473 0 0 1 .557 4.91v.038c0 1.71 1.22 3.13 2.818 3.456a3.51 3.51 0 0 1-.922.116 3.11 3.11 0 0 1-.666-.06 3.55 3.55 0 0 0 3.286 2.45 7.067 7.067 0 0 1-4.36 1.5c-.289 0-.565-.013-.842-.048a9.902 9.902 0 0 0 5.395 1.578c6.472 0 10.01-5.361 10.01-10.008 0-.156-.004-.306-.012-.455a7.017 7.017 0 0 0 1.763-1.826z"/></g></g></g></g></svg>